<?xml version="1.0" encoding="utf-8" standalone="no"?>
<!DOCTYPE svg PUBLIC "-//W3C//DTD SVG 1.1//EN"
  "http://www.w3.org/Graphics/SVG/1.1/DTD/svg11.dtd">
<svg xmlns:xlink="http://www.w3.org/1999/xlink" width="432pt" height="288pt" viewBox="0 0 432 288" xmlns="http://www.w3.org/2000/svg" version="1.1">
 <metadata>
  <rdf:RDF xmlns:dc="http://purl.org/dc/elements/1.1/" xmlns:cc="http://creativecommons.org/ns#" xmlns:rdf="http://www.w3.org/1999/02/22-rdf-syntax-ns#">
   <cc:Work>
    <dc:type rdf:resource="http://purl.org/dc/dcmitype/StillImage"/>
    <dc:date>2023-03-13T04:06:50.344729</dc:date>
    <dc:format>image/svg+xml</dc:format>
    <dc:creator>
     <cc:Agent>
      <dc:title>Matplotlib v3.6.2, https://matplotlib.org/</dc:title>
     </cc:Agent>
    </dc:creator>
   </cc:Work>
  </rdf:RDF>
 </metadata>
 <defs>
  <style type="text/css">*{stroke-linejoin: round; stroke-linecap: butt}</style>
 </defs>
 <g id="figure_1">
  <g id="patch_1">
   <path d="M 0 288 
L 432 288 
L 432 0 
L 0 0 
L 0 288 
z
" style="fill: none"/>
  </g>
  <g id="axes_1">
   <g id="patch_2">
    <path d="M 54 252 
L 388.8 252 
L 388.8 34.56 
L 54 34.56 
z
" style="fill: #ffffff"/>
   </g>
   <g id="matplotlib.axis_1">
    <g id="xtick_1">
     <g id="line2d_1">
      <path d="M 56.42281 252 
L 56.42281 34.56 
" clip-path="url(#p01b3b437e5)" style="fill: none; stroke: #b0b0b0; stroke-width: 0.8; stroke-linecap: square"/>
     </g>
     <g id="line2d_2">
      <defs>
       <path id="m63239d9360" d="M 0 0 
L 0 3.5 
" style="stroke: #000000; stroke-width: 0.8"/>
      </defs>
      <g>
       <use xlink:href="#m63239d9360" x="56.42281" y="252" style="stroke: #000000; stroke-width: 0.8"/>
      </g>
     </g>
     <g id="text_1">
      <!-- 0 -->
      <g transform="translate(53.24156 266.598437) scale(0.1 -0.1)">
       <defs>
        <path id="DejaVuSans-30" d="M 2034 4250 
Q 1547 4250 1301 3770 
Q 1056 3291 1056 2328 
Q 1056 1369 1301 889 
Q 1547 409 2034 409 
Q 2525 409 2770 889 
Q 3016 1369 3016 2328 
Q 3016 3291 2770 3770 
Q 2525 4250 2034 4250 
z
M 2034 4750 
Q 2819 4750 3233 4129 
Q 3647 3509 3647 2328 
Q 3647 1150 3233 529 
Q 2819 -91 2034 -91 
Q 1250 -91 836 529 
Q 422 1150 422 2328 
Q 422 3509 836 4129 
Q 1250 4750 2034 4750 
z
" transform="scale(0.015625)"/>
       </defs>
       <use xlink:href="#DejaVuSans-30"/>
      </g>
     </g>
    </g>
    <g id="xtick_2">
     <g id="line2d_3">
      <path d="M 130.352802 252 
L 130.352802 34.56 
" clip-path="url(#p01b3b437e5)" style="fill: none; stroke: #b0b0b0; stroke-width: 0.8; stroke-linecap: square"/>
     </g>
     <g id="line2d_4">
      <g>
       <use xlink:href="#m63239d9360" x="130.352802" y="252" style="stroke: #000000; stroke-width: 0.8"/>
      </g>
     </g>
     <g id="text_2">
      <!-- 2 -->
      <g transform="translate(127.171552 266.598437) scale(0.1 -0.1)">
       <defs>
        <path id="DejaVuSans-32" d="M 1228 531 
L 3431 531 
L 3431 0 
L 469 0 
L 469 531 
Q 828 903 1448 1529 
Q 2069 2156 2228 2338 
Q 2531 2678 2651 2914 
Q 2772 3150 2772 3378 
Q 2772 3750 2511 3984 
Q 2250 4219 1831 4219 
Q 1534 4219 1204 4116 
Q 875 4013 500 3803 
L 500 4441 
Q 881 4594 1212 4672 
Q 1544 4750 1819 4750 
Q 2544 4750 2975 4387 
Q 3406 4025 3406 3419 
Q 3406 3131 3298 2873 
Q 3191 2616 2906 2266 
Q 2828 2175 2409 1742 
Q 1991 1309 1228 531 
z
" transform="scale(0.015625)"/>
       </defs>
       <use xlink:href="#DejaVuSans-32"/>
      </g>
     </g>
    </g>
    <g id="xtick_3">
     <g id="line2d_5">
      <path d="M 204.282794 252 
L 204.282794 34.56 
" clip-path="url(#p01b3b437e5)" style="fill: none; stroke: #b0b0b0; stroke-width: 0.8; stroke-linecap: square"/>
     </g>
     <g id="line2d_6">
      <g>
       <use xlink:href="#m63239d9360" x="204.282794" y="252" style="stroke: #000000; stroke-width: 0.8"/>
      </g>
     </g>
     <g id="text_3">
      <!-- 4 -->
      <g transform="translate(201.101544 266.598437) scale(0.1 -0.1)">
       <defs>
        <path id="DejaVuSans-34" d="M 2419 4116 
L 825 1625 
L 2419 1625 
L 2419 4116 
z
M 2253 4666 
L 3047 4666 
L 3047 1625 
L 3713 1625 
L 3713 1100 
L 3047 1100 
L 3047 0 
L 2419 0 
L 2419 1100 
L 313 1100 
L 313 1709 
L 2253 4666 
z
" transform="scale(0.015625)"/>
       </defs>
       <use xlink:href="#DejaVuSans-34"/>
      </g>
     </g>
    </g>
    <g id="xtick_4">
     <g id="line2d_7">
      <path d="M 278.212786 252 
L 278.212786 34.56 
" clip-path="url(#p01b3b437e5)" style="fill: none; stroke: #b0b0b0; stroke-width: 0.8; stroke-linecap: square"/>
     </g>
     <g id="line2d_8">
      <g>
       <use xlink:href="#m63239d9360" x="278.212786" y="252" style="stroke: #000000; stroke-width: 0.8"/>
      </g>
     </g>
     <g id="text_4">
      <!-- 6 -->
      <g transform="translate(275.031536 266.598437) scale(0.1 -0.1)">
       <defs>
        <path id="DejaVuSans-36" d="M 2113 2584 
Q 1688 2584 1439 2293 
Q 1191 2003 1191 1497 
Q 1191 994 1439 701 
Q 1688 409 2113 409 
Q 2538 409 2786 701 
Q 3034 994 3034 1497 
Q 3034 2003 2786 2293 
Q 2538 2584 2113 2584 
z
M 3366 4563 
L 3366 3988 
Q 3128 4100 2886 4159 
Q 2644 4219 2406 4219 
Q 1781 4219 1451 3797 
Q 1122 3375 1075 2522 
Q 1259 2794 1537 2939 
Q 1816 3084 2150 3084 
Q 2853 3084 3261 2657 
Q 3669 2231 3669 1497 
Q 3669 778 3244 343 
Q 2819 -91 2113 -91 
Q 1303 -91 875 529 
Q 447 1150 447 2328 
Q 447 3434 972 4092 
Q 1497 4750 2381 4750 
Q 2619 4750 2861 4703 
Q 3103 4656 3366 4563 
z
" transform="scale(0.015625)"/>
       </defs>
       <use xlink:href="#DejaVuSans-36"/>
      </g>
     </g>
    </g>
    <g id="xtick_5">
     <g id="line2d_9">
      <path d="M 352.142778 252 
L 352.142778 34.56 
" clip-path="url(#p01b3b437e5)" style="fill: none; stroke: #b0b0b0; stroke-width: 0.8; stroke-linecap: square"/>
     </g>
     <g id="line2d_10">
      <g>
       <use xlink:href="#m63239d9360" x="352.142778" y="252" style="stroke: #000000; stroke-width: 0.8"/>
      </g>
     </g>
     <g id="text_5">
      <!-- 8 -->
      <g transform="translate(348.961528 266.598437) scale(0.1 -0.1)">
       <defs>
        <path id="DejaVuSans-38" d="M 2034 2216 
Q 1584 2216 1326 1975 
Q 1069 1734 1069 1313 
Q 1069 891 1326 650 
Q 1584 409 2034 409 
Q 2484 409 2743 651 
Q 3003 894 3003 1313 
Q 3003 1734 2745 1975 
Q 2488 2216 2034 2216 
z
M 1403 2484 
Q 997 2584 770 2862 
Q 544 3141 544 3541 
Q 544 4100 942 4425 
Q 1341 4750 2034 4750 
Q 2731 4750 3128 4425 
Q 3525 4100 3525 3541 
Q 3525 3141 3298 2862 
Q 3072 2584 2669 2484 
Q 3125 2378 3379 2068 
Q 3634 1759 3634 1313 
Q 3634 634 3220 271 
Q 2806 -91 2034 -91 
Q 1263 -91 848 271 
Q 434 634 434 1313 
Q 434 1759 690 2068 
Q 947 2378 1403 2484 
z
M 1172 3481 
Q 1172 3119 1398 2916 
Q 1625 2713 2034 2713 
Q 2441 2713 2670 2916 
Q 2900 3119 2900 3481 
Q 2900 3844 2670 4047 
Q 2441 4250 2034 4250 
Q 1625 4250 1398 4047 
Q 1172 3844 1172 3481 
z
" transform="scale(0.015625)"/>
       </defs>
       <use xlink:href="#DejaVuSans-38"/>
      </g>
     </g>
    </g>
    <g id="text_6">
     <!-- Risk - Std dev -->
     <g transform="translate(186.946875 280.276563) scale(0.1 -0.1)">
      <defs>
       <path id="DejaVuSans-52" d="M 2841 2188 
Q 3044 2119 3236 1894 
Q 3428 1669 3622 1275 
L 4263 0 
L 3584 0 
L 2988 1197 
Q 2756 1666 2539 1819 
Q 2322 1972 1947 1972 
L 1259 1972 
L 1259 0 
L 628 0 
L 628 4666 
L 2053 4666 
Q 2853 4666 3247 4331 
Q 3641 3997 3641 3322 
Q 3641 2881 3436 2590 
Q 3231 2300 2841 2188 
z
M 1259 4147 
L 1259 2491 
L 2053 2491 
Q 2509 2491 2742 2702 
Q 2975 2913 2975 3322 
Q 2975 3731 2742 3939 
Q 2509 4147 2053 4147 
L 1259 4147 
z
" transform="scale(0.015625)"/>
       <path id="DejaVuSans-69" d="M 603 3500 
L 1178 3500 
L 1178 0 
L 603 0 
L 603 3500 
z
M 603 4863 
L 1178 4863 
L 1178 4134 
L 603 4134 
L 603 4863 
z
" transform="scale(0.015625)"/>
       <path id="DejaVuSans-73" d="M 2834 3397 
L 2834 2853 
Q 2591 2978 2328 3040 
Q 2066 3103 1784 3103 
Q 1356 3103 1142 2972 
Q 928 2841 928 2578 
Q 928 2378 1081 2264 
Q 1234 2150 1697 2047 
L 1894 2003 
Q 2506 1872 2764 1633 
Q 3022 1394 3022 966 
Q 3022 478 2636 193 
Q 2250 -91 1575 -91 
Q 1294 -91 989 -36 
Q 684 19 347 128 
L 347 722 
Q 666 556 975 473 
Q 1284 391 1588 391 
Q 1994 391 2212 530 
Q 2431 669 2431 922 
Q 2431 1156 2273 1281 
Q 2116 1406 1581 1522 
L 1381 1569 
Q 847 1681 609 1914 
Q 372 2147 372 2553 
Q 372 3047 722 3315 
Q 1072 3584 1716 3584 
Q 2034 3584 2315 3537 
Q 2597 3491 2834 3397 
z
" transform="scale(0.015625)"/>
       <path id="DejaVuSans-6b" d="M 581 4863 
L 1159 4863 
L 1159 1991 
L 2875 3500 
L 3609 3500 
L 1753 1863 
L 3688 0 
L 2938 0 
L 1159 1709 
L 1159 0 
L 581 0 
L 581 4863 
z
" transform="scale(0.015625)"/>
       <path id="DejaVuSans-20" transform="scale(0.015625)"/>
       <path id="DejaVuSans-2d" d="M 313 2009 
L 1997 2009 
L 1997 1497 
L 313 1497 
L 313 2009 
z
" transform="scale(0.015625)"/>
       <path id="DejaVuSans-53" d="M 3425 4513 
L 3425 3897 
Q 3066 4069 2747 4153 
Q 2428 4238 2131 4238 
Q 1616 4238 1336 4038 
Q 1056 3838 1056 3469 
Q 1056 3159 1242 3001 
Q 1428 2844 1947 2747 
L 2328 2669 
Q 3034 2534 3370 2195 
Q 3706 1856 3706 1288 
Q 3706 609 3251 259 
Q 2797 -91 1919 -91 
Q 1588 -91 1214 -16 
Q 841 59 441 206 
L 441 856 
Q 825 641 1194 531 
Q 1563 422 1919 422 
Q 2459 422 2753 634 
Q 3047 847 3047 1241 
Q 3047 1584 2836 1778 
Q 2625 1972 2144 2069 
L 1759 2144 
Q 1053 2284 737 2584 
Q 422 2884 422 3419 
Q 422 4038 858 4394 
Q 1294 4750 2059 4750 
Q 2388 4750 2728 4690 
Q 3069 4631 3425 4513 
z
" transform="scale(0.015625)"/>
       <path id="DejaVuSans-74" d="M 1172 4494 
L 1172 3500 
L 2356 3500 
L 2356 3053 
L 1172 3053 
L 1172 1153 
Q 1172 725 1289 603 
Q 1406 481 1766 481 
L 2356 481 
L 2356 0 
L 1766 0 
Q 1100 0 847 248 
Q 594 497 594 1153 
L 594 3053 
L 172 3053 
L 172 3500 
L 594 3500 
L 594 4494 
L 1172 4494 
z
" transform="scale(0.015625)"/>
       <path id="DejaVuSans-64" d="M 2906 2969 
L 2906 4863 
L 3481 4863 
L 3481 0 
L 2906 0 
L 2906 525 
Q 2725 213 2448 61 
Q 2172 -91 1784 -91 
Q 1150 -91 751 415 
Q 353 922 353 1747 
Q 353 2572 751 3078 
Q 1150 3584 1784 3584 
Q 2172 3584 2448 3432 
Q 2725 3281 2906 2969 
z
M 947 1747 
Q 947 1113 1208 752 
Q 1469 391 1925 391 
Q 2381 391 2643 752 
Q 2906 1113 2906 1747 
Q 2906 2381 2643 2742 
Q 2381 3103 1925 3103 
Q 1469 3103 1208 2742 
Q 947 2381 947 1747 
z
" transform="scale(0.015625)"/>
       <path id="DejaVuSans-65" d="M 3597 1894 
L 3597 1613 
L 953 1613 
Q 991 1019 1311 708 
Q 1631 397 2203 397 
Q 2534 397 2845 478 
Q 3156 559 3463 722 
L 3463 178 
Q 3153 47 2828 -22 
Q 2503 -91 2169 -91 
Q 1331 -91 842 396 
Q 353 884 353 1716 
Q 353 2575 817 3079 
Q 1281 3584 2069 3584 
Q 2775 3584 3186 3129 
Q 3597 2675 3597 1894 
z
M 3022 2063 
Q 3016 2534 2758 2815 
Q 2500 3097 2075 3097 
Q 1594 3097 1305 2825 
Q 1016 2553 972 2059 
L 3022 2063 
z
" transform="scale(0.015625)"/>
       <path id="DejaVuSans-76" d="M 191 3500 
L 800 3500 
L 1894 563 
L 2988 3500 
L 3597 3500 
L 2284 0 
L 1503 0 
L 191 3500 
z
" transform="scale(0.015625)"/>
      </defs>
      <use xlink:href="#DejaVuSans-52"/>
      <use xlink:href="#DejaVuSans-69" x="69.482422"/>
      <use xlink:href="#DejaVuSans-73" x="97.265625"/>
      <use xlink:href="#DejaVuSans-6b" x="149.365234"/>
      <use xlink:href="#DejaVuSans-20" x="207.275391"/>
      <use xlink:href="#DejaVuSans-2d" x="239.0625"/>
      <use xlink:href="#DejaVuSans-20" x="275.146484"/>
      <use xlink:href="#DejaVuSans-53" x="306.933594"/>
      <use xlink:href="#DejaVuSans-74" x="370.410156"/>
      <use xlink:href="#DejaVuSans-64" x="409.619141"/>
      <use xlink:href="#DejaVuSans-20" x="473.095703"/>
      <use xlink:href="#DejaVuSans-64" x="504.882812"/>
      <use xlink:href="#DejaVuSans-65" x="568.359375"/>
      <use xlink:href="#DejaVuSans-76" x="629.882812"/>
     </g>
    </g>
   </g>
   <g id="matplotlib.axis_2">
    <g id="ytick_1">
     <g id="line2d_11">
      <path d="M 54 236.9355 
L 388.8 236.9355 
" clip-path="url(#p01b3b437e5)" style="fill: none; stroke: #b0b0b0; stroke-width: 0.8; stroke-linecap: square"/>
     </g>
     <g id="line2d_12">
      <defs>
       <path id="m954cc763dc" d="M 0 0 
L -3.5 0 
" style="stroke: #000000; stroke-width: 0.8"/>
      </defs>
      <g>
       <use xlink:href="#m954cc763dc" x="54" y="236.9355" style="stroke: #000000; stroke-width: 0.8"/>
      </g>
     </g>
     <g id="text_7">
      <!-- 1 -->
      <g transform="translate(40.6375 240.734719) scale(0.1 -0.1)">
       <defs>
        <path id="DejaVuSans-31" d="M 794 531 
L 1825 531 
L 1825 4091 
L 703 3866 
L 703 4441 
L 1819 4666 
L 2450 4666 
L 2450 531 
L 3481 531 
L 3481 0 
L 794 0 
L 794 531 
z
" transform="scale(0.015625)"/>
       </defs>
       <use xlink:href="#DejaVuSans-31"/>
      </g>
     </g>
    </g>
    <g id="ytick_2">
     <g id="line2d_13">
      <path d="M 54 200.114372 
L 388.8 200.114372 
" clip-path="url(#p01b3b437e5)" style="fill: none; stroke: #b0b0b0; stroke-width: 0.8; stroke-linecap: square"/>
     </g>
     <g id="line2d_14">
      <g>
       <use xlink:href="#m954cc763dc" x="54" y="200.114372" style="stroke: #000000; stroke-width: 0.8"/>
      </g>
     </g>
     <g id="text_8">
      <!-- 2 -->
      <g transform="translate(40.6375 203.913591) scale(0.1 -0.1)">
       <use xlink:href="#DejaVuSans-32"/>
      </g>
     </g>
    </g>
    <g id="ytick_3">
     <g id="line2d_15">
      <path d="M 54 163.293245 
L 388.8 163.293245 
" clip-path="url(#p01b3b437e5)" style="fill: none; stroke: #b0b0b0; stroke-width: 0.8; stroke-linecap: square"/>
     </g>
     <g id="line2d_16">
      <g>
       <use xlink:href="#m954cc763dc" x="54" y="163.293245" style="stroke: #000000; stroke-width: 0.8"/>
      </g>
     </g>
     <g id="text_9">
      <!-- 3 -->
      <g transform="translate(40.6375 167.092463) scale(0.1 -0.1)">
       <defs>
        <path id="DejaVuSans-33" d="M 2597 2516 
Q 3050 2419 3304 2112 
Q 3559 1806 3559 1356 
Q 3559 666 3084 287 
Q 2609 -91 1734 -91 
Q 1441 -91 1130 -33 
Q 819 25 488 141 
L 488 750 
Q 750 597 1062 519 
Q 1375 441 1716 441 
Q 2309 441 2620 675 
Q 2931 909 2931 1356 
Q 2931 1769 2642 2001 
Q 2353 2234 1838 2234 
L 1294 2234 
L 1294 2753 
L 1863 2753 
Q 2328 2753 2575 2939 
Q 2822 3125 2822 3475 
Q 2822 3834 2567 4026 
Q 2313 4219 1838 4219 
Q 1578 4219 1281 4162 
Q 984 4106 628 3988 
L 628 4550 
Q 988 4650 1302 4700 
Q 1616 4750 1894 4750 
Q 2613 4750 3031 4423 
Q 3450 4097 3450 3541 
Q 3450 3153 3228 2886 
Q 3006 2619 2597 2516 
z
" transform="scale(0.015625)"/>
       </defs>
       <use xlink:href="#DejaVuSans-33"/>
      </g>
     </g>
    </g>
    <g id="ytick_4">
     <g id="line2d_17">
      <path d="M 54 126.472117 
L 388.8 126.472117 
" clip-path="url(#p01b3b437e5)" style="fill: none; stroke: #b0b0b0; stroke-width: 0.8; stroke-linecap: square"/>
     </g>
     <g id="line2d_18">
      <g>
       <use xlink:href="#m954cc763dc" x="54" y="126.472117" style="stroke: #000000; stroke-width: 0.8"/>
      </g>
     </g>
     <g id="text_10">
      <!-- 4 -->
      <g transform="translate(40.6375 130.271335) scale(0.1 -0.1)">
       <use xlink:href="#DejaVuSans-34"/>
      </g>
     </g>
    </g>
    <g id="ytick_5">
     <g id="line2d_19">
      <path d="M 54 89.650989 
L 388.8 89.650989 
" clip-path="url(#p01b3b437e5)" style="fill: none; stroke: #b0b0b0; stroke-width: 0.8; stroke-linecap: square"/>
     </g>
     <g id="line2d_20">
      <g>
       <use xlink:href="#m954cc763dc" x="54" y="89.650989" style="stroke: #000000; stroke-width: 0.8"/>
      </g>
     </g>
     <g id="text_11">
      <!-- 5 -->
      <g transform="translate(40.6375 93.450208) scale(0.1 -0.1)">
       <defs>
        <path id="DejaVuSans-35" d="M 691 4666 
L 3169 4666 
L 3169 4134 
L 1269 4134 
L 1269 2991 
Q 1406 3038 1543 3061 
Q 1681 3084 1819 3084 
Q 2600 3084 3056 2656 
Q 3513 2228 3513 1497 
Q 3513 744 3044 326 
Q 2575 -91 1722 -91 
Q 1428 -91 1123 -41 
Q 819 9 494 109 
L 494 744 
Q 775 591 1075 516 
Q 1375 441 1709 441 
Q 2250 441 2565 725 
Q 2881 1009 2881 1497 
Q 2881 1984 2565 2268 
Q 2250 2553 1709 2553 
Q 1456 2553 1204 2497 
Q 953 2441 691 2322 
L 691 4666 
z
" transform="scale(0.015625)"/>
       </defs>
       <use xlink:href="#DejaVuSans-35"/>
      </g>
     </g>
    </g>
    <g id="ytick_6">
     <g id="line2d_21">
      <path d="M 54 52.829861 
L 388.8 52.829861 
" clip-path="url(#p01b3b437e5)" style="fill: none; stroke: #b0b0b0; stroke-width: 0.8; stroke-linecap: square"/>
     </g>
     <g id="line2d_22">
      <g>
       <use xlink:href="#m954cc763dc" x="54" y="52.829861" style="stroke: #000000; stroke-width: 0.8"/>
      </g>
     </g>
     <g id="text_12">
      <!-- 6 -->
      <g transform="translate(40.6375 56.62908) scale(0.1 -0.1)">
       <use xlink:href="#DejaVuSans-36"/>
      </g>
     </g>
    </g>
    <g id="text_13">
     <!-- Return -->
     <g transform="translate(34.557812 159.871406) rotate(-90) scale(0.1 -0.1)">
      <defs>
       <path id="DejaVuSans-75" d="M 544 1381 
L 544 3500 
L 1119 3500 
L 1119 1403 
Q 1119 906 1312 657 
Q 1506 409 1894 409 
Q 2359 409 2629 706 
Q 2900 1003 2900 1516 
L 2900 3500 
L 3475 3500 
L 3475 0 
L 2900 0 
L 2900 538 
Q 2691 219 2414 64 
Q 2138 -91 1772 -91 
Q 1169 -91 856 284 
Q 544 659 544 1381 
z
M 1991 3584 
L 1991 3584 
z
" transform="scale(0.015625)"/>
       <path id="DejaVuSans-72" d="M 2631 2963 
Q 2534 3019 2420 3045 
Q 2306 3072 2169 3072 
Q 1681 3072 1420 2755 
Q 1159 2438 1159 1844 
L 1159 0 
L 581 0 
L 581 3500 
L 1159 3500 
L 1159 2956 
Q 1341 3275 1631 3429 
Q 1922 3584 2338 3584 
Q 2397 3584 2469 3576 
Q 2541 3569 2628 3553 
L 2631 2963 
z
" transform="scale(0.015625)"/>
       <path id="DejaVuSans-6e" d="M 3513 2113 
L 3513 0 
L 2938 0 
L 2938 2094 
Q 2938 2591 2744 2837 
Q 2550 3084 2163 3084 
Q 1697 3084 1428 2787 
Q 1159 2491 1159 1978 
L 1159 0 
L 581 0 
L 581 3500 
L 1159 3500 
L 1159 2956 
Q 1366 3272 1645 3428 
Q 1925 3584 2291 3584 
Q 2894 3584 3203 3211 
Q 3513 2838 3513 2113 
z
" transform="scale(0.015625)"/>
      </defs>
      <use xlink:href="#DejaVuSans-52"/>
      <use xlink:href="#DejaVuSans-65" x="64.982422"/>
      <use xlink:href="#DejaVuSans-74" x="126.505859"/>
      <use xlink:href="#DejaVuSans-75" x="165.714844"/>
      <use xlink:href="#DejaVuSans-72" x="229.09375"/>
      <use xlink:href="#DejaVuSans-6e" x="268.457031"/>
     </g>
    </g>
   </g>
   <g id="line2d_23">
    <path d="M 151.17972 189.011393 
L 151.180617 189.011133 
L 151.179524 189.011528 
L 151.177569 189.01212 
L 151.179735 189.01138 
L 151.179694 189.011392 
L 151.179489 189.011457 
L 151.178664 189.011724 
L 151.17593 189.012638 
L 151.179295 189.011529 
L 151.177856 189.012035 
L 151.173083 189.013767 
L 151.177015 189.012385 
L 151.17974 189.011378 
L 151.179721 189.011387 
L 146.868412 190.183136 
L 142.486752 191.444824 
L 138.848069 192.568434 
L 135.846009 193.568703 
L 131.184118 195.246758 
L 126.235711 197.105316 
L 121.413411 199.008027 
L 116.187971 201.153159 
L 111.142602 203.280254 
L 106.786515 205.173826 
L 103.04621 206.85951 
L 99.853898 208.360128 
L 97.146695 209.695998 
L 94.866108 210.885212 
L 92.957769 211.943826 
L 91.37146 212.886146 
L 90.061195 213.724914 
L 88.985383 214.471539 
L 87.97188 215.243498 
L 86.222427 216.663868 
L 84.509338 218.139467 
L 83.04532 219.477037 
L 81.825251 220.667764 
L 80.800369 221.743777 
L 78.965766 223.7818 
L 77.398248 225.596143 
L 76.067513 227.210314 
L 74.945015 228.648202 
L 74.004815 229.926991 
L 73.222283 231.066136 
L 72.575235 232.08022 
L 72.043435 232.982973 
L 71.608771 233.78662 
L 71.255261 234.502047 
L 70.969006 235.138954 
L 70.738079 235.705985 
L 70.552379 236.210837 
L 70.403443 236.660368 
L 70.223054 237.26753 
L 70.060525 237.87111 
L 69.940048 238.367386 
L 69.892581 238.586342 
L 69.854845 238.78126 
L 69.824865 238.954779 
L 69.801058 239.109249 
L 69.782162 239.246762 
L 69.767168 239.369179 
L 69.755273 239.478155 
L 69.74584 239.575168 
L 69.738359 239.661531 
L 69.732428 239.738412 
L 69.727722 239.806843 
L 69.723994 239.867805 
L 69.72104 239.922007 
L 69.718695 239.9703 
L 69.716839 240.013281 
L 69.715368 240.051542 
L 69.714202 240.085601 
L 69.713278 240.11592 
L 69.712547 240.142907 
L 69.711968 240.16693 
L 69.711511 240.188308 
L 69.711151 240.207336 
L 69.710867 240.224283 
L 69.710648 240.239378 
L 69.710462 240.252891 
L 69.710299 240.264987 
L 69.710149 240.275847 
L 69.710012 240.28559 
L 69.710022 240.293399 
L 69.709965 240.300917 
L 69.709918 240.307615 
L 69.709879 240.313586 
L 69.709846 240.318912 
L 69.709816 240.323669 
L 69.709789 240.327922 
L 69.709762 240.331731 
L 69.709734 240.335149 
L 69.709704 240.338222 
L 69.709672 240.340992 
L 69.709637 240.343494 
L 69.709754 240.344934 
L 69.709744 240.346827 
L 69.709735 240.348515 
L 69.709726 240.350028 
" clip-path="url(#p01b3b437e5)" style="fill: none; stroke: #1f77b4; stroke-width: 1.5; stroke-linecap: square"/>
   </g>
   <g id="line2d_24">
    <path d="M 212.832024 151.66941 
L 212.230682 151.722852 
L 211.751571 151.770905 
L 211.366825 151.815078 
L 211.071678 151.850589 
L 210.831934 151.884284 
L 208.787754 152.214407 
L 204.843123 152.894365 
L 201.637752 153.500914 
L 199.054658 154.03756 
L 196.967258 154.518042 
L 192.538543 155.663632 
L 183.73887 158.038979 
L 176.307052 160.153834 
L 170.071735 162.037323 
L 164.878886 163.711793 
L 160.577604 165.204229 
L 156.888088 166.590886 
L 150.568987 169.122769 
L 145.241997 171.377058 
L 140.780574 173.384788 
L 135.577629 175.885613 
L 130.122922 178.620612 
L 124.380065 181.616666 
L 119.655971 184.17565 
L 116.118644 186.195715 
L 111.693709 188.855327 
L 107.796911 191.292132 
L 104.484476 193.461635 
L 101.687477 195.393023 
L 99.341411 197.112505 
L 97.51042 198.545891 
L 95.021915 200.630792 
L 92.825367 202.571742 
L 90.986107 204.299133 
L 89.455593 205.837164 
L 87.988425 207.426403 
L 86.577723 209.061103 
L 85.33176 210.61186 
L 83.814165 212.661716 
L 81.493987 215.898413 
L 79.490126 218.779767 
L 77.768908 221.344792 
L 76.299289 223.628216 
L 75.052481 225.660954 
L 74.001709 227.470528 
L 73.122096 229.081438 
L 72.390639 230.515495 
L 71.786258 231.792114 
L 71.289855 232.928579 
L 70.884367 233.940278 
L 70.554764 234.840908 
L 70.287995 235.642661 
L 70.072883 236.356395 
L 69.899972 236.991771 
L 69.76135 237.557393 
L 69.650464 238.060917 
L 69.561923 238.509163 
L 69.491331 238.908198 
L 69.435115 239.263424 
L 69.390392 239.579653 
L 69.35484 239.861164 
L 69.326596 240.111769 
L 69.304169 240.334862 
L 69.286368 240.533463 
L 69.272244 240.71026 
L 69.26104 240.867647 
L 69.252154 241.007756 
L 69.245107 241.132483 
L 69.23952 241.243517 
L 69.235091 241.342361 
L 69.23158 241.430353 
L 69.228796 241.508685 
L 69.22659 241.578418 
L 69.224842 241.640495 
L 69.223456 241.695756 
L 69.222357 241.744951 
L 69.221487 241.788745 
L 69.220797 241.827731 
L 69.22025 241.862437 
L 69.219817 241.893333 
L 69.219473 241.920837 
L 69.219201 241.945322 
L 69.218986 241.967118 
L 69.218815 241.986521 
L 69.218679 242.003795 
L 69.218572 242.019172 
L 69.218487 242.03286 
L 69.218419 242.045046 
L 69.218366 242.055894 
L 69.218324 242.065552 
L 69.21829 242.074149 
L 69.218263 242.081802 
L 69.218242 242.088615 
L 69.218226 242.09468 
L 69.218212 242.100079 
L 69.218202 242.104885 
L 69.218194 242.109164 
L 69.218187 242.112973 
L 69.218182 242.116364 
" clip-path="url(#p01b3b437e5)" style="fill: none; stroke: #ff7f0e; stroke-width: 1.5; stroke-linecap: square"/>
   </g>
   <g id="line2d_25">
    <path d="M 373.581818 44.443636 
L 365.937358 45.810782 
L 359.748476 47.024409 
L 354.749841 48.106495 
L 350.727147 49.070316 
L 343.997737 50.893591 
L 327.237366 55.665721 
L 313.182662 59.912605 
L 301.470391 63.694892 
L 291.774429 67.062369 
L 283.794777 70.061798 
L 272.865866 74.527916 
L 261.075934 79.615344 
L 251.225066 84.145416 
L 243.045502 88.181309 
L 231.832259 94.158235 
L 215.239628 103.206145 
L 200.740962 111.261199 
L 188.122089 118.432077 
L 177.188807 124.815922 
L 167.764289 130.499102 
L 159.686328 135.558394 
L 152.805042 140.062162 
L 146.981149 144.0714 
L 140.964521 148.437318 
L 135.774709 152.385925 
L 132.120081 155.343239 
L 129.092078 157.977585 
L 126.143415 160.763849 
L 121.973898 164.93708 
L 118.470905 168.652097 
L 115.547632 171.959267 
L 112.563393 175.602087 
L 106.73876 182.90737 
L 101.592487 189.410643 
L 97.053803 195.199954 
L 93.059774 200.353687 
L 89.554346 204.941617 
L 86.487446 209.025862 
L 83.814163 212.661719 
L 81.493987 215.898413 
L 79.490126 218.779767 
L 77.768908 221.344792 
L 76.299289 223.628216 
L 75.052481 225.660954 
L 74.001709 227.470528 
L 73.122096 229.081438 
L 72.390639 230.515495 
L 71.786258 231.792114 
L 71.289855 232.928579 
L 70.884367 233.940278 
L 70.554764 234.840908 
L 70.287995 235.642661 
L 70.072883 236.356395 
L 69.899972 236.991771 
L 69.76135 237.557393 
L 69.650464 238.060917 
L 69.561923 238.509163 
L 69.491331 238.908198 
L 69.435115 239.263424 
L 69.390392 239.579653 
L 69.35484 239.861164 
L 69.326596 240.111769 
L 69.304169 240.334862 
L 69.286368 240.533463 
L 69.272244 240.71026 
L 69.26104 240.867647 
L 69.252154 241.007756 
L 69.245107 241.132483 
L 69.23952 241.243517 
L 69.235091 241.342361 
L 69.23158 241.430353 
L 69.228796 241.508685 
L 69.22659 241.578418 
L 69.224842 241.640495 
L 69.223456 241.695756 
L 69.222357 241.744951 
L 69.221487 241.788745 
L 69.220797 241.827731 
L 69.22025 241.862437 
L 69.219817 241.893333 
L 69.219473 241.920837 
L 69.219201 241.945322 
L 69.218986 241.967118 
L 69.218815 241.986521 
L 69.218679 242.003795 
L 69.218572 242.019172 
L 69.218487 242.03286 
L 69.218419 242.045046 
L 69.218366 242.055894 
L 69.218324 242.065552 
L 69.21829 242.074149 
L 69.218263 242.081802 
L 69.218242 242.088615 
L 69.218226 242.09468 
L 69.218212 242.100079 
L 69.218202 242.104885 
L 69.218194 242.109164 
L 69.218187 242.112973 
L 69.218182 242.116364 
" clip-path="url(#p01b3b437e5)" style="fill: none; stroke: #2ca02c; stroke-width: 1.5; stroke-linecap: square"/>
   </g>
   <g id="patch_3">
    <path d="M 54 252 
L 54 34.56 
" style="fill: none; stroke: #000000; stroke-width: 0.8; stroke-linejoin: miter; stroke-linecap: square"/>
   </g>
   <g id="patch_4">
    <path d="M 388.8 252 
L 388.8 34.56 
" style="fill: none; stroke: #000000; stroke-width: 0.8; stroke-linejoin: miter; stroke-linecap: square"/>
   </g>
   <g id="patch_5">
    <path d="M 54 252 
L 388.8 252 
" style="fill: none; stroke: #000000; stroke-width: 0.8; stroke-linejoin: miter; stroke-linecap: square"/>
   </g>
   <g id="patch_6">
    <path d="M 54 34.56 
L 388.8 34.56 
" style="fill: none; stroke: #000000; stroke-width: 0.8; stroke-linejoin: miter; stroke-linecap: square"/>
   </g>
   <g id="text_14">
    <!-- Return vs Risk curves for various Ɣ-risk aversion. -->
    <g transform="translate(74.304375 15.09825) scale(0.12 -0.12)">
     <defs>
      <path id="DejaVuSans-63" d="M 3122 3366 
L 3122 2828 
Q 2878 2963 2633 3030 
Q 2388 3097 2138 3097 
Q 1578 3097 1268 2742 
Q 959 2388 959 1747 
Q 959 1106 1268 751 
Q 1578 397 2138 397 
Q 2388 397 2633 464 
Q 2878 531 3122 666 
L 3122 134 
Q 2881 22 2623 -34 
Q 2366 -91 2075 -91 
Q 1284 -91 818 406 
Q 353 903 353 1747 
Q 353 2603 823 3093 
Q 1294 3584 2113 3584 
Q 2378 3584 2631 3529 
Q 2884 3475 3122 3366 
z
" transform="scale(0.015625)"/>
      <path id="DejaVuSans-66" d="M 2375 4863 
L 2375 4384 
L 1825 4384 
Q 1516 4384 1395 4259 
Q 1275 4134 1275 3809 
L 1275 3500 
L 2222 3500 
L 2222 3053 
L 1275 3053 
L 1275 0 
L 697 0 
L 697 3053 
L 147 3053 
L 147 3500 
L 697 3500 
L 697 3744 
Q 697 4328 969 4595 
Q 1241 4863 1831 4863 
L 2375 4863 
z
" transform="scale(0.015625)"/>
      <path id="DejaVuSans-6f" d="M 1959 3097 
Q 1497 3097 1228 2736 
Q 959 2375 959 1747 
Q 959 1119 1226 758 
Q 1494 397 1959 397 
Q 2419 397 2687 759 
Q 2956 1122 2956 1747 
Q 2956 2369 2687 2733 
Q 2419 3097 1959 3097 
z
M 1959 3584 
Q 2709 3584 3137 3096 
Q 3566 2609 3566 1747 
Q 3566 888 3137 398 
Q 2709 -91 1959 -91 
Q 1206 -91 779 398 
Q 353 888 353 1747 
Q 353 2609 779 3096 
Q 1206 3584 1959 3584 
z
" transform="scale(0.015625)"/>
      <path id="DejaVuSans-61" d="M 2194 1759 
Q 1497 1759 1228 1600 
Q 959 1441 959 1056 
Q 959 750 1161 570 
Q 1363 391 1709 391 
Q 2188 391 2477 730 
Q 2766 1069 2766 1631 
L 2766 1759 
L 2194 1759 
z
M 3341 1997 
L 3341 0 
L 2766 0 
L 2766 531 
Q 2569 213 2275 61 
Q 1981 -91 1556 -91 
Q 1019 -91 701 211 
Q 384 513 384 1019 
Q 384 1609 779 1909 
Q 1175 2209 1959 2209 
L 2766 2209 
L 2766 2266 
Q 2766 2663 2505 2880 
Q 2244 3097 1772 3097 
Q 1472 3097 1187 3025 
Q 903 2953 641 2809 
L 641 3341 
Q 956 3463 1253 3523 
Q 1550 3584 1831 3584 
Q 2591 3584 2966 3190 
Q 3341 2797 3341 1997 
z
" transform="scale(0.015625)"/>
      <path id="DejaVuSans-194" d="M 2197 -809 
Q 2366 -809 2503 -709 
Q 2591 -647 2591 -441 
Q 2591 -263 2494 -34 
Q 2334 344 2197 631 
Q 2059 344 1900 -34 
Q 1803 -263 1803 -441 
Q 1803 -647 1891 -709 
Q 2028 -809 2197 -809 
z
M 2197 1972 
L 3675 4666 
L 4369 4666 
L 2550 1313 
Q 2875 688 3084 144 
Q 3228 -228 3228 -434 
Q 3228 -869 2994 -1072 
Q 2681 -1344 2197 -1344 
Q 1713 -1344 1400 -1072 
Q 1166 -869 1166 -434 
Q 1166 -228 1309 144 
Q 1519 688 1844 1313 
L 25 4666 
L 719 4666 
L 2197 1972 
z
" transform="scale(0.015625)"/>
      <path id="DejaVuSans-2e" d="M 684 794 
L 1344 794 
L 1344 0 
L 684 0 
L 684 794 
z
" transform="scale(0.015625)"/>
     </defs>
     <use xlink:href="#DejaVuSans-52"/>
     <use xlink:href="#DejaVuSans-65" x="64.982422"/>
     <use xlink:href="#DejaVuSans-74" x="126.505859"/>
     <use xlink:href="#DejaVuSans-75" x="165.714844"/>
     <use xlink:href="#DejaVuSans-72" x="229.09375"/>
     <use xlink:href="#DejaVuSans-6e" x="268.457031"/>
     <use xlink:href="#DejaVuSans-20" x="331.835938"/>
     <use xlink:href="#DejaVuSans-76" x="363.623047"/>
     <use xlink:href="#DejaVuSans-73" x="422.802734"/>
     <use xlink:href="#DejaVuSans-20" x="474.902344"/>
     <use xlink:href="#DejaVuSans-52" x="506.689453"/>
     <use xlink:href="#DejaVuSans-69" x="576.171875"/>
     <use xlink:href="#DejaVuSans-73" x="603.955078"/>
     <use xlink:href="#DejaVuSans-6b" x="656.054688"/>
     <use xlink:href="#DejaVuSans-20" x="713.964844"/>
     <use xlink:href="#DejaVuSans-63" x="745.751953"/>
     <use xlink:href="#DejaVuSans-75" x="800.732422"/>
     <use xlink:href="#DejaVuSans-72" x="864.111328"/>
     <use xlink:href="#DejaVuSans-76" x="905.224609"/>
     <use xlink:href="#DejaVuSans-65" x="964.404297"/>
     <use xlink:href="#DejaVuSans-73" x="1025.927734"/>
     <use xlink:href="#DejaVuSans-20" x="1078.027344"/>
     <use xlink:href="#DejaVuSans-66" x="1109.814453"/>
     <use xlink:href="#DejaVuSans-6f" x="1145.019531"/>
     <use xlink:href="#DejaVuSans-72" x="1206.201172"/>
     <use xlink:href="#DejaVuSans-20" x="1247.314453"/>
     <use xlink:href="#DejaVuSans-76" x="1279.101562"/>
     <use xlink:href="#DejaVuSans-61" x="1338.28125"/>
     <use xlink:href="#DejaVuSans-72" x="1399.560547"/>
     <use xlink:href="#DejaVuSans-69" x="1440.673828"/>
     <use xlink:href="#DejaVuSans-6f" x="1468.457031"/>
     <use xlink:href="#DejaVuSans-75" x="1529.638672"/>
     <use xlink:href="#DejaVuSans-73" x="1593.017578"/>
     <use xlink:href="#DejaVuSans-20" x="1645.117188"/>
     <use xlink:href="#DejaVuSans-194" x="1676.904297"/>
     <use xlink:href="#DejaVuSans-2d" x="1745.556641"/>
     <use xlink:href="#DejaVuSans-72" x="1781.640625"/>
     <use xlink:href="#DejaVuSans-69" x="1822.753906"/>
     <use xlink:href="#DejaVuSans-73" x="1850.537109"/>
     <use xlink:href="#DejaVuSans-6b" x="1902.636719"/>
     <use xlink:href="#DejaVuSans-20" x="1960.546875"/>
     <use xlink:href="#DejaVuSans-61" x="1992.333984"/>
     <use xlink:href="#DejaVuSans-76" x="2053.613281"/>
     <use xlink:href="#DejaVuSans-65" x="2112.792969"/>
     <use xlink:href="#DejaVuSans-72" x="2174.316406"/>
     <use xlink:href="#DejaVuSans-73" x="2215.429688"/>
     <use xlink:href="#DejaVuSans-69" x="2267.529297"/>
     <use xlink:href="#DejaVuSans-6f" x="2295.3125"/>
     <use xlink:href="#DejaVuSans-6e" x="2356.494141"/>
     <use xlink:href="#DejaVuSans-2e" x="2419.873047"/>
    </g>
    <!-- One curve per max leverage -->
    <g transform="translate(135.4575 28.56) scale(0.12 -0.12)">
     <defs>
      <path id="DejaVuSans-4f" d="M 2522 4238 
Q 1834 4238 1429 3725 
Q 1025 3213 1025 2328 
Q 1025 1447 1429 934 
Q 1834 422 2522 422 
Q 3209 422 3611 934 
Q 4013 1447 4013 2328 
Q 4013 3213 3611 3725 
Q 3209 4238 2522 4238 
z
M 2522 4750 
Q 3503 4750 4090 4092 
Q 4678 3434 4678 2328 
Q 4678 1225 4090 567 
Q 3503 -91 2522 -91 
Q 1538 -91 948 565 
Q 359 1222 359 2328 
Q 359 3434 948 4092 
Q 1538 4750 2522 4750 
z
" transform="scale(0.015625)"/>
      <path id="DejaVuSans-70" d="M 1159 525 
L 1159 -1331 
L 581 -1331 
L 581 3500 
L 1159 3500 
L 1159 2969 
Q 1341 3281 1617 3432 
Q 1894 3584 2278 3584 
Q 2916 3584 3314 3078 
Q 3713 2572 3713 1747 
Q 3713 922 3314 415 
Q 2916 -91 2278 -91 
Q 1894 -91 1617 61 
Q 1341 213 1159 525 
z
M 3116 1747 
Q 3116 2381 2855 2742 
Q 2594 3103 2138 3103 
Q 1681 3103 1420 2742 
Q 1159 2381 1159 1747 
Q 1159 1113 1420 752 
Q 1681 391 2138 391 
Q 2594 391 2855 752 
Q 3116 1113 3116 1747 
z
" transform="scale(0.015625)"/>
      <path id="DejaVuSans-6d" d="M 3328 2828 
Q 3544 3216 3844 3400 
Q 4144 3584 4550 3584 
Q 5097 3584 5394 3201 
Q 5691 2819 5691 2113 
L 5691 0 
L 5113 0 
L 5113 2094 
Q 5113 2597 4934 2840 
Q 4756 3084 4391 3084 
Q 3944 3084 3684 2787 
Q 3425 2491 3425 1978 
L 3425 0 
L 2847 0 
L 2847 2094 
Q 2847 2600 2669 2842 
Q 2491 3084 2119 3084 
Q 1678 3084 1418 2786 
Q 1159 2488 1159 1978 
L 1159 0 
L 581 0 
L 581 3500 
L 1159 3500 
L 1159 2956 
Q 1356 3278 1631 3431 
Q 1906 3584 2284 3584 
Q 2666 3584 2933 3390 
Q 3200 3197 3328 2828 
z
" transform="scale(0.015625)"/>
      <path id="DejaVuSans-78" d="M 3513 3500 
L 2247 1797 
L 3578 0 
L 2900 0 
L 1881 1375 
L 863 0 
L 184 0 
L 1544 1831 
L 300 3500 
L 978 3500 
L 1906 2253 
L 2834 3500 
L 3513 3500 
z
" transform="scale(0.015625)"/>
      <path id="DejaVuSans-6c" d="M 603 4863 
L 1178 4863 
L 1178 0 
L 603 0 
L 603 4863 
z
" transform="scale(0.015625)"/>
      <path id="DejaVuSans-67" d="M 2906 1791 
Q 2906 2416 2648 2759 
Q 2391 3103 1925 3103 
Q 1463 3103 1205 2759 
Q 947 2416 947 1791 
Q 947 1169 1205 825 
Q 1463 481 1925 481 
Q 2391 481 2648 825 
Q 2906 1169 2906 1791 
z
M 3481 434 
Q 3481 -459 3084 -895 
Q 2688 -1331 1869 -1331 
Q 1566 -1331 1297 -1286 
Q 1028 -1241 775 -1147 
L 775 -588 
Q 1028 -725 1275 -790 
Q 1522 -856 1778 -856 
Q 2344 -856 2625 -561 
Q 2906 -266 2906 331 
L 2906 616 
Q 2728 306 2450 153 
Q 2172 0 1784 0 
Q 1141 0 747 490 
Q 353 981 353 1791 
Q 353 2603 747 3093 
Q 1141 3584 1784 3584 
Q 2172 3584 2450 3431 
Q 2728 3278 2906 2969 
L 2906 3500 
L 3481 3500 
L 3481 434 
z
" transform="scale(0.015625)"/>
     </defs>
     <use xlink:href="#DejaVuSans-4f"/>
     <use xlink:href="#DejaVuSans-6e" x="78.710938"/>
     <use xlink:href="#DejaVuSans-65" x="142.089844"/>
     <use xlink:href="#DejaVuSans-20" x="203.613281"/>
     <use xlink:href="#DejaVuSans-63" x="235.400391"/>
     <use xlink:href="#DejaVuSans-75" x="290.380859"/>
     <use xlink:href="#DejaVuSans-72" x="353.759766"/>
     <use xlink:href="#DejaVuSans-76" x="394.873047"/>
     <use xlink:href="#DejaVuSans-65" x="454.052734"/>
     <use xlink:href="#DejaVuSans-20" x="515.576172"/>
     <use xlink:href="#DejaVuSans-70" x="547.363281"/>
     <use xlink:href="#DejaVuSans-65" x="610.839844"/>
     <use xlink:href="#DejaVuSans-72" x="672.363281"/>
     <use xlink:href="#DejaVuSans-20" x="713.476562"/>
     <use xlink:href="#DejaVuSans-6d" x="745.263672"/>
     <use xlink:href="#DejaVuSans-61" x="842.675781"/>
     <use xlink:href="#DejaVuSans-78" x="903.955078"/>
     <use xlink:href="#DejaVuSans-20" x="963.134766"/>
     <use xlink:href="#DejaVuSans-6c" x="994.921875"/>
     <use xlink:href="#DejaVuSans-65" x="1022.705078"/>
     <use xlink:href="#DejaVuSans-76" x="1084.228516"/>
     <use xlink:href="#DejaVuSans-65" x="1143.408203"/>
     <use xlink:href="#DejaVuSans-72" x="1204.931641"/>
     <use xlink:href="#DejaVuSans-61" x="1246.044922"/>
     <use xlink:href="#DejaVuSans-67" x="1307.324219"/>
     <use xlink:href="#DejaVuSans-65" x="1370.800781"/>
    </g>
   </g>
   <g id="legend_1">
    <g id="patch_7">
     <path d="M 61 86.594375 
L 133.5 86.594375 
Q 135.5 86.594375 135.5 84.594375 
L 135.5 41.56 
Q 135.5 39.56 133.5 39.56 
L 61 39.56 
Q 59 39.56 59 41.56 
L 59 84.594375 
Q 59 86.594375 61 86.594375 
z
" style="fill: #ffffff; opacity: 0.8; stroke: #cccccc; stroke-linejoin: miter"/>
    </g>
    <g id="line2d_26">
     <path d="M 63 47.658438 
L 73 47.658438 
L 83 47.658438 
" style="fill: none; stroke: #1f77b4; stroke-width: 1.5; stroke-linecap: square"/>
    </g>
    <g id="text_15">
     <!-- $L^{max} = 1$ -->
     <g transform="translate(91 51.158438) scale(0.1 -0.1)">
      <defs>
       <path id="DejaVuSans-Oblique-4c" d="M 1075 4666 
L 1709 4666 
L 909 525 
L 3181 525 
L 3078 0 
L 172 0 
L 1075 4666 
z
" transform="scale(0.015625)"/>
       <path id="DejaVuSans-Oblique-6d" d="M 5747 2113 
L 5338 0 
L 4763 0 
L 5166 2094 
Q 5191 2228 5203 2325 
Q 5216 2422 5216 2491 
Q 5216 2772 5059 2928 
Q 4903 3084 4622 3084 
Q 4203 3084 3875 2770 
Q 3547 2456 3450 1953 
L 3066 0 
L 2491 0 
L 2900 2094 
Q 2925 2209 2937 2307 
Q 2950 2406 2950 2484 
Q 2950 2769 2794 2926 
Q 2638 3084 2363 3084 
Q 1938 3084 1609 2770 
Q 1281 2456 1184 1953 
L 800 0 
L 225 0 
L 909 3500 
L 1484 3500 
L 1375 2956 
Q 1609 3263 1923 3423 
Q 2238 3584 2597 3584 
Q 2978 3584 3223 3384 
Q 3469 3184 3519 2828 
Q 3781 3197 4126 3390 
Q 4472 3584 4856 3584 
Q 5306 3584 5551 3325 
Q 5797 3066 5797 2591 
Q 5797 2488 5784 2364 
Q 5772 2241 5747 2113 
z
" transform="scale(0.015625)"/>
       <path id="DejaVuSans-Oblique-61" d="M 3438 1997 
L 3047 0 
L 2472 0 
L 2578 531 
Q 2325 219 2001 64 
Q 1678 -91 1281 -91 
Q 834 -91 548 182 
Q 263 456 263 884 
Q 263 1497 752 1853 
Q 1241 2209 2100 2209 
L 2900 2209 
L 2931 2363 
Q 2938 2388 2941 2417 
Q 2944 2447 2944 2509 
Q 2944 2788 2717 2942 
Q 2491 3097 2081 3097 
Q 1800 3097 1504 3025 
Q 1209 2953 897 2809 
L 997 3341 
Q 1322 3463 1633 3523 
Q 1944 3584 2234 3584 
Q 2853 3584 3176 3315 
Q 3500 3047 3500 2534 
Q 3500 2431 3484 2292 
Q 3469 2153 3438 1997 
z
M 2816 1759 
L 2241 1759 
Q 1534 1759 1195 1570 
Q 856 1381 856 984 
Q 856 709 1029 553 
Q 1203 397 1509 397 
Q 1978 397 2328 733 
Q 2678 1069 2791 1631 
L 2816 1759 
z
" transform="scale(0.015625)"/>
       <path id="DejaVuSans-Oblique-78" d="M 3841 3500 
L 2234 1784 
L 3219 0 
L 2559 0 
L 1819 1388 
L 531 0 
L -166 0 
L 1556 1844 
L 641 3500 
L 1300 3500 
L 1972 2234 
L 3144 3500 
L 3841 3500 
z
" transform="scale(0.015625)"/>
       <path id="DejaVuSans-3d" d="M 678 2906 
L 4684 2906 
L 4684 2381 
L 678 2381 
L 678 2906 
z
M 678 1631 
L 4684 1631 
L 4684 1100 
L 678 1100 
L 678 1631 
z
" transform="scale(0.015625)"/>
      </defs>
      <use xlink:href="#DejaVuSans-Oblique-4c" transform="translate(0 0.51875)"/>
      <use xlink:href="#DejaVuSans-Oblique-6d" transform="translate(62.729661 38.8) scale(0.7)"/>
      <use xlink:href="#DejaVuSans-Oblique-61" transform="translate(130.918138 38.8) scale(0.7)"/>
      <use xlink:href="#DejaVuSans-Oblique-78" transform="translate(173.813646 38.8) scale(0.7)"/>
      <use xlink:href="#DejaVuSans-3d" transform="translate(237.456224 0.51875)"/>
      <use xlink:href="#DejaVuSans-31" transform="translate(340.727708 0.51875)"/>
     </g>
    </g>
    <g id="line2d_27">
     <path d="M 63 62.336563 
L 73 62.336563 
L 83 62.336563 
" style="fill: none; stroke: #ff7f0e; stroke-width: 1.5; stroke-linecap: square"/>
    </g>
    <g id="text_16">
     <!-- $L^{max} = 2$ -->
     <g transform="translate(91 65.836563) scale(0.1 -0.1)">
      <use xlink:href="#DejaVuSans-Oblique-4c" transform="translate(0 0.51875)"/>
      <use xlink:href="#DejaVuSans-Oblique-6d" transform="translate(62.729661 38.8) scale(0.7)"/>
      <use xlink:href="#DejaVuSans-Oblique-61" transform="translate(130.918138 38.8) scale(0.7)"/>
      <use xlink:href="#DejaVuSans-Oblique-78" transform="translate(173.813646 38.8) scale(0.7)"/>
      <use xlink:href="#DejaVuSans-3d" transform="translate(237.456224 0.51875)"/>
      <use xlink:href="#DejaVuSans-32" transform="translate(340.727708 0.51875)"/>
     </g>
    </g>
    <g id="line2d_28">
     <path d="M 63 77.014688 
L 73 77.014688 
L 83 77.014688 
" style="fill: none; stroke: #2ca02c; stroke-width: 1.5; stroke-linecap: square"/>
    </g>
    <g id="text_17">
     <!-- $L^{max} = 5$ -->
     <g transform="translate(91 80.514688) scale(0.1 -0.1)">
      <use xlink:href="#DejaVuSans-Oblique-4c" transform="translate(0 0.51875)"/>
      <use xlink:href="#DejaVuSans-Oblique-6d" transform="translate(62.729661 38.8) scale(0.7)"/>
      <use xlink:href="#DejaVuSans-Oblique-61" transform="translate(130.918138 38.8) scale(0.7)"/>
      <use xlink:href="#DejaVuSans-Oblique-78" transform="translate(173.813646 38.8) scale(0.7)"/>
      <use xlink:href="#DejaVuSans-3d" transform="translate(237.456224 0.51875)"/>
      <use xlink:href="#DejaVuSans-35" transform="translate(340.727708 0.51875)"/>
     </g>
    </g>
   </g>
  </g>
 </g>
 <defs>
  <clipPath id="p01b3b437e5">
   <rect x="54" y="34.56" width="334.8" height="217.44"/>
  </clipPath>
 </defs>
</svg>
